<svg width="67" height="15" viewBox="0 0 67 15" fill="none" xmlns="http://www.w3.org/2000/svg">
<g clip-path="url(#clip0_32_278)">
<path d="M19.2956 6.76388V9.17953H18.4819V6.13322H19.2449L19.2956 6.76388ZM19.183 7.54939H18.9577C18.9577 7.33729 18.9831 7.14209 19.0338 6.96378C19.0863 6.78359 19.1623 6.6278 19.2618 6.49641C19.3632 6.36315 19.488 6.25992 19.6363 6.18671C19.7845 6.11351 19.9563 6.07691 20.1515 6.07691C20.2866 6.07691 20.4105 6.09756 20.5231 6.13885C20.6357 6.17827 20.7324 6.24115 20.8131 6.32749C20.8957 6.41195 20.9595 6.52269 21.0046 6.65971C21.0496 6.79485 21.0721 6.95721 21.0721 7.14678V9.17953H20.2613V7.23688C20.2613 7.09798 20.2425 6.99099 20.205 6.91591C20.1674 6.84084 20.1139 6.78828 20.0445 6.75825C19.9769 6.72822 19.8953 6.7132 19.7996 6.7132C19.6944 6.7132 19.6025 6.73479 19.5236 6.77796C19.4467 6.82113 19.3829 6.88119 19.3322 6.95815C19.2815 7.03323 19.244 7.12144 19.2196 7.2228C19.1952 7.32415 19.183 7.43302 19.183 7.54939ZM20.9961 7.45648L20.7061 7.49308C20.7061 7.29412 20.7305 7.10924 20.7793 6.93844C20.83 6.76763 20.9041 6.61748 21.0017 6.48797C21.1012 6.35846 21.2242 6.25804 21.3706 6.18671C21.517 6.11351 21.6859 6.07691 21.8774 6.07691C22.0238 6.07691 22.157 6.0985 22.2771 6.14167C22.3973 6.18296 22.4996 6.24959 22.584 6.34156C22.6704 6.43166 22.7361 6.54991 22.7811 6.69631C22.828 6.84271 22.8515 7.02196 22.8515 7.23406V9.17953H22.0378V7.23406C22.0378 7.09329 22.0191 6.9863 21.9815 6.9131C21.9459 6.83802 21.8933 6.7864 21.8239 6.75825C21.7563 6.72822 21.6756 6.7132 21.5817 6.7132C21.4841 6.7132 21.3987 6.73291 21.3255 6.77233C21.2523 6.80987 21.1913 6.86242 21.1425 6.92999C21.0937 6.99756 21.0571 7.0764 21.0327 7.16649C21.0083 7.25471 20.9961 7.35137 20.9961 7.45648ZM25.1236 8.49257V7.13552C25.1236 7.03792 25.1076 6.95439 25.0757 6.88494C25.0438 6.81362 24.9941 6.75825 24.9265 6.71883C24.8608 6.67942 24.7754 6.65971 24.6703 6.65971C24.5802 6.65971 24.5023 6.67566 24.4366 6.70757C24.3709 6.7376 24.3202 6.78171 24.2846 6.8399C24.2489 6.89621 24.2311 6.96284 24.2311 7.03979H23.4202C23.4202 6.91028 23.4503 6.78734 23.5103 6.67097C23.5704 6.5546 23.6577 6.4523 23.7721 6.36409C23.8866 6.27399 24.0227 6.20361 24.1804 6.15293C24.3399 6.10225 24.5182 6.07691 24.7153 6.07691C24.9518 6.07691 25.162 6.11633 25.346 6.19516C25.5299 6.27399 25.6745 6.39224 25.7796 6.54991C25.8866 6.70757 25.94 6.90465 25.94 7.14115V8.4447C25.94 8.61175 25.9504 8.74877 25.971 8.85576C25.9917 8.96087 26.0217 9.05284 26.0611 9.13167V9.17953H25.2418C25.2024 9.09695 25.1724 8.99372 25.1517 8.86984C25.1329 8.74408 25.1236 8.61832 25.1236 8.49257ZM25.2306 7.32415L25.2362 7.78307H24.7829C24.6759 7.78307 24.583 7.79527 24.5042 7.81967C24.4253 7.84407 24.3606 7.8788 24.3099 7.92385C24.2592 7.96702 24.2217 8.01769 24.1973 8.07588C24.1748 8.13407 24.1635 8.19788 24.1635 8.26733C24.1635 8.33678 24.1795 8.39966 24.2114 8.45596C24.2433 8.5104 24.2893 8.55357 24.3493 8.58548C24.4094 8.61551 24.4798 8.63052 24.5605 8.63052C24.6825 8.63052 24.7885 8.60612 24.8786 8.55732C24.9687 8.50852 25.0382 8.44846 25.087 8.37713C25.1376 8.30581 25.1639 8.23824 25.1658 8.17442L25.3798 8.5179C25.3497 8.59486 25.3084 8.67463 25.2559 8.75722C25.2052 8.8398 25.1405 8.9177 25.0616 8.9909C24.9828 9.06222 24.888 9.12135 24.7773 9.16827C24.6665 9.21332 24.5351 9.23584 24.3831 9.23584C24.1898 9.23584 24.0143 9.19737 23.8566 9.12041C23.7008 9.04158 23.5769 8.93365 23.485 8.79663C23.3949 8.65774 23.3498 8.50007 23.3498 8.32364C23.3498 8.1641 23.3799 8.02239 23.4399 7.89851C23.5 7.77463 23.5882 7.67045 23.7046 7.58599C23.8228 7.49965 23.9702 7.4349 24.1466 7.39173C24.323 7.34668 24.5276 7.32415 24.7604 7.32415H25.2306ZM27.359 6.78359V9.17953H26.5482V6.13322H27.3084L27.359 6.78359ZM27.2408 7.54939H27.0212C27.0212 7.32415 27.0503 7.12144 27.1085 6.94125C27.1666 6.75919 27.2483 6.60434 27.3534 6.47671C27.4585 6.34719 27.5833 6.24865 27.7279 6.18108C27.8743 6.11164 28.0376 6.07691 28.2177 6.07691C28.3604 6.07691 28.4908 6.09756 28.6091 6.13885C28.7273 6.18014 28.8287 6.24584 28.9132 6.33593C28.9995 6.42603 29.0652 6.54521 29.1102 6.69349C29.1572 6.84177 29.1806 7.0229 29.1806 7.23688V9.17953H28.3641V7.23406C28.3641 7.09892 28.3454 6.99381 28.3078 6.91873C28.2703 6.84365 28.2149 6.7911 28.1417 6.76107C28.0704 6.72916 27.9822 6.7132 27.8771 6.7132C27.7682 6.7132 27.6734 6.73479 27.5927 6.77796C27.5139 6.82113 27.4482 6.88119 27.3956 6.95815C27.345 7.03323 27.3065 7.12144 27.2802 7.2228C27.2539 7.32415 27.2408 7.43302 27.2408 7.54939ZM31.7258 6.13322H32.4606V9.07818C32.4606 9.35597 32.3987 9.59153 32.2748 9.78486C32.1528 9.98006 31.982 10.1274 31.7624 10.2269C31.5428 10.3282 31.2875 10.3789 30.9966 10.3789C30.869 10.3789 30.7338 10.362 30.5912 10.3282C30.4504 10.2945 30.3153 10.2419 30.1857 10.1706C30.0581 10.0992 29.9511 10.0092 29.8648 9.90029L30.2223 9.42166C30.3162 9.53053 30.4251 9.61499 30.5489 9.67505C30.6728 9.73699 30.8098 9.76796 30.96 9.76796C31.1064 9.76796 31.2303 9.74075 31.3316 9.68632C31.433 9.63376 31.5109 9.55587 31.5653 9.45263C31.6197 9.35128 31.647 9.22834 31.647 9.08381V6.83708L31.7258 6.13322ZM29.6761 7.69298V7.63385C29.6761 7.40111 29.7043 7.18995 29.7606 7.00038C29.8188 6.80893 29.9004 6.64469 30.0056 6.50767C30.1125 6.37066 30.242 6.26461 30.3941 6.18953C30.5461 6.11445 30.7179 6.07691 30.9093 6.07691C31.112 6.07691 31.2819 6.11445 31.4189 6.18953C31.5559 6.26461 31.6685 6.3716 31.7568 6.51049C31.845 6.64751 31.9135 6.80987 31.9623 6.99756C32.013 7.18338 32.0524 7.38703 32.0805 7.60852V7.73803C32.0524 7.95012 32.0102 8.1472 31.9538 8.32927C31.8975 8.51134 31.8234 8.67088 31.7314 8.8079C31.6394 8.94304 31.525 9.04815 31.3879 9.12323C31.2528 9.1983 31.0914 9.23584 30.9037 9.23584C30.716 9.23584 30.5461 9.19737 30.3941 9.12041C30.2439 9.04345 30.1154 8.93553 30.0084 8.79663C29.9014 8.65774 29.8188 8.49444 29.7606 8.30675C29.7043 8.11905 29.6761 7.91446 29.6761 7.69298ZM30.487 7.63385V7.69298C30.487 7.81874 30.4992 7.93605 30.5236 8.04491C30.548 8.15377 30.5855 8.25044 30.6362 8.3349C30.6888 8.41749 30.7535 8.48224 30.8305 8.52917C30.9093 8.57421 31.0022 8.59674 31.1092 8.59674C31.2575 8.59674 31.3786 8.56577 31.4724 8.50383C31.5662 8.44001 31.6366 8.35273 31.6836 8.24199C31.7305 8.13125 31.7577 8.00362 31.7652 7.85909V7.49027C31.7615 7.37202 31.7455 7.26597 31.7173 7.17212C31.6892 7.0764 31.6498 6.99475 31.5991 6.92718C31.5484 6.85961 31.4827 6.80705 31.402 6.76951C31.3213 6.73197 31.2256 6.7132 31.1148 6.7132C31.0079 6.7132 30.9149 6.7376 30.8361 6.7864C30.7592 6.83333 30.6944 6.89808 30.6418 6.98067C30.5912 7.06326 30.5527 7.16086 30.5264 7.27348C30.5001 7.38422 30.487 7.50434 30.487 7.63385ZM34.3498 8.60237C34.4493 8.60237 34.5375 8.5836 34.6144 8.54606C34.6914 8.50664 34.7515 8.45221 34.7946 8.38276C34.8397 8.31144 34.8631 8.22791 34.865 8.13219H35.628C35.6261 8.34616 35.5689 8.53667 35.4563 8.70372C35.3436 8.8689 35.1925 8.99935 35.003 9.09507C34.8134 9.18892 34.6013 9.23584 34.3667 9.23584C34.1302 9.23584 33.9237 9.19643 33.7473 9.1176C33.5727 9.03876 33.4273 8.9299 33.3109 8.791C33.1945 8.65023 33.1072 8.48693 33.049 8.30112C32.9909 8.11342 32.9618 7.91258 32.9618 7.69861V7.61696C32.9618 7.40111 32.9909 7.20028 33.049 7.01446C33.1072 6.82676 33.1945 6.66346 33.3109 6.52457C33.4273 6.3838 33.5727 6.27399 33.7473 6.19516C33.9218 6.11633 34.1264 6.07691 34.361 6.07691C34.6107 6.07691 34.8294 6.12477 35.017 6.2205C35.2066 6.31622 35.3549 6.45324 35.4619 6.63155C35.5708 6.80799 35.6261 7.01727 35.628 7.2594H34.865C34.8631 7.15804 34.8416 7.06607 34.8003 6.98349C34.7608 6.9009 34.7027 6.83521 34.6257 6.7864C34.5506 6.73573 34.4577 6.71039 34.347 6.71039C34.2287 6.71039 34.1321 6.73573 34.057 6.7864C33.9819 6.83521 33.9237 6.90278 33.8824 6.98912C33.8411 7.07358 33.812 7.17024 33.7951 7.27911C33.7801 7.38609 33.7726 7.49871 33.7726 7.61696V7.69861C33.7726 7.81686 33.7801 7.93041 33.7951 8.03928C33.8102 8.14814 33.8383 8.24481 33.8796 8.32927C33.9228 8.41373 33.9819 8.48037 34.057 8.52917C34.1321 8.57797 34.2297 8.60237 34.3498 8.60237ZM35.9687 7.68735V7.62822C35.9687 7.40486 36.0006 7.19934 36.0644 7.01164C36.1282 6.82207 36.2211 6.65783 36.3431 6.51894C36.4651 6.38004 36.6153 6.27212 36.7936 6.19516C36.9719 6.11633 37.1765 6.07691 37.4074 6.07691C37.6382 6.07691 37.8438 6.11633 38.0239 6.19516C38.2041 6.27212 38.3552 6.38004 38.4772 6.51894C38.6011 6.65783 38.695 6.82207 38.7588 7.01164C38.8226 7.19934 38.8545 7.40486 38.8545 7.62822V7.68735C38.8545 7.90883 38.8226 8.11436 38.7588 8.30393C38.695 8.49163 38.6011 8.65586 38.4772 8.79663C38.3552 8.93553 38.2051 9.04345 38.0268 9.12041C37.8485 9.19737 37.6439 9.23584 37.413 9.23584C37.1821 9.23584 36.9766 9.19737 36.7964 9.12041C36.6181 9.04345 36.467 8.93553 36.3431 8.79663C36.2211 8.65586 36.1282 8.49163 36.0644 8.30393C36.0006 8.11436 35.9687 7.90883 35.9687 7.68735ZM36.7795 7.62822V7.68735C36.7795 7.81498 36.7908 7.93417 36.8133 8.04491C36.8358 8.15565 36.8715 8.25325 36.9203 8.33772C36.971 8.4203 37.0367 8.48506 37.1174 8.53198C37.1981 8.57891 37.2966 8.60237 37.413 8.60237C37.5256 8.60237 37.6223 8.57891 37.703 8.53198C37.7837 8.48506 37.8485 8.4203 37.8973 8.33772C37.9461 8.25325 37.9817 8.15565 38.0042 8.04491C38.0286 7.93417 38.0408 7.81498 38.0408 7.68735V7.62822C38.0408 7.50434 38.0286 7.38797 38.0042 7.27911C37.9817 7.16837 37.9451 7.07076 37.8944 6.9863C37.8456 6.89996 37.7809 6.83239 37.7002 6.78359C37.6195 6.73479 37.5219 6.71039 37.4074 6.71039C37.2929 6.71039 37.1953 6.73479 37.1146 6.78359C37.0357 6.83239 36.971 6.89996 36.9203 6.9863C36.8715 7.07076 36.8358 7.16837 36.8133 7.27911C36.7908 7.38797 36.7795 7.50434 36.7795 7.62822ZM41.1519 8.51509V4.85501H41.9684V9.17953H41.2336L41.1519 8.51509ZM39.2261 7.69298V7.63385C39.2261 7.40111 39.2524 7.18995 39.305 7.00038C39.3575 6.80893 39.4345 6.64469 39.5358 6.50767C39.6372 6.37066 39.762 6.26461 39.9103 6.18953C40.0586 6.11445 40.2275 6.07691 40.4171 6.07691C40.5954 6.07691 40.7512 6.11445 40.8844 6.18953C41.0196 6.26461 41.1341 6.3716 41.2279 6.51049C41.3237 6.64751 41.4006 6.80987 41.4588 6.99756C41.517 7.18338 41.5592 7.38703 41.5855 7.60852V7.73803C41.5592 7.95012 41.517 8.1472 41.4588 8.32927C41.4006 8.51134 41.3237 8.67088 41.2279 8.8079C41.1341 8.94304 41.0196 9.04815 40.8844 9.12323C40.7493 9.1983 40.5916 9.23584 40.4114 9.23584C40.2219 9.23584 40.0529 9.19737 39.9047 9.12041C39.7583 9.04345 39.6344 8.93553 39.533 8.79663C39.4335 8.65774 39.3575 8.49444 39.305 8.30675C39.2524 8.11905 39.2261 7.91446 39.2261 7.69298ZM40.037 7.63385V7.69298C40.037 7.81874 40.0464 7.93605 40.0651 8.04491C40.0858 8.15377 40.1186 8.25044 40.1637 8.3349C40.2106 8.41749 40.2707 8.48224 40.3439 8.52917C40.419 8.57421 40.51 8.59674 40.617 8.59674C40.7559 8.59674 40.8704 8.56577 40.9605 8.50383C41.0506 8.44001 41.1191 8.35273 41.166 8.24199C41.2148 8.13125 41.2429 8.00362 41.2504 7.85909V7.49027C41.2448 7.37202 41.2279 7.26597 41.1998 7.17212C41.1735 7.0764 41.1341 6.99475 41.0815 6.92718C41.0308 6.85961 40.967 6.80705 40.8901 6.76951C40.815 6.73197 40.7258 6.7132 40.6226 6.7132C40.5175 6.7132 40.4274 6.7376 40.3523 6.7864C40.2772 6.83333 40.2162 6.89808 40.1693 6.98067C40.1243 7.06326 40.0905 7.16086 40.068 7.27348C40.0473 7.38422 40.037 7.50434 40.037 7.63385ZM43.4578 6.13322V9.17953H42.6441V6.13322H43.4578ZM42.5934 5.33926C42.5934 5.22102 42.6347 5.12341 42.7173 5.04646C42.7999 4.9695 42.9106 4.93102 43.0495 4.93102C43.1865 4.93102 43.2963 4.9695 43.3789 5.04646C43.4634 5.12341 43.5056 5.22102 43.5056 5.33926C43.5056 5.45751 43.4634 5.55512 43.3789 5.63207C43.2963 5.70903 43.1865 5.7475 43.0495 5.7475C42.9106 5.7475 42.7999 5.70903 42.7173 5.63207C42.6347 5.55512 42.5934 5.45751 42.5934 5.33926ZM44.9218 6.78359V9.17953H44.1109V6.13322H44.8711L44.9218 6.78359ZM44.8035 7.54939H44.5839C44.5839 7.32415 44.613 7.12144 44.6712 6.94125C44.7294 6.75919 44.8111 6.60434 44.9162 6.47671C45.0213 6.34719 45.1461 6.24865 45.2906 6.18108C45.437 6.11164 45.6003 6.07691 45.7805 6.07691C45.9232 6.07691 46.0536 6.09756 46.1719 6.13885C46.2901 6.18014 46.3915 6.24584 46.4759 6.33593C46.5623 6.42603 46.628 6.54521 46.673 6.69349C46.7199 6.84177 46.7434 7.0229 46.7434 7.23688V9.17953H45.9269V7.23406C45.9269 7.09892 45.9081 6.99381 45.8706 6.91873C45.8331 6.84365 45.7777 6.7911 45.7045 6.76107C45.6332 6.72916 45.5449 6.7132 45.4398 6.7132C45.331 6.7132 45.2362 6.73479 45.1555 6.77796C45.0766 6.82113 45.0109 6.88119 44.9584 6.95815C44.9077 7.03323 44.8692 7.12144 44.843 7.2228C44.8167 7.32415 44.8035 7.43302 44.8035 7.54939ZM49.2886 6.13322H50.0234V9.07818C50.0234 9.35597 49.9614 9.59153 49.8376 9.78486C49.7156 9.98006 49.5448 10.1274 49.3252 10.2269C49.1055 10.3282 48.8503 10.3789 48.5594 10.3789C48.4317 10.3789 48.2966 10.362 48.1539 10.3282C48.0132 10.2945 47.878 10.2419 47.7485 10.1706C47.6209 10.0992 47.5139 10.0092 47.4275 9.90029L47.7851 9.42166C47.879 9.53053 47.9878 9.61499 48.1117 9.67505C48.2356 9.73699 48.3726 9.76796 48.5228 9.76796C48.6692 9.76796 48.793 9.74075 48.8944 9.68632C48.9957 9.63376 49.0736 9.55587 49.1281 9.45263C49.1825 9.35128 49.2097 9.22834 49.2097 9.08381V6.83708L49.2886 6.13322ZM47.2389 7.69298V7.63385C47.2389 7.40111 47.2671 7.18995 47.3234 7.00038C47.3816 6.80893 47.4632 6.64469 47.5683 6.50767C47.6753 6.37066 47.8048 6.26461 47.9568 6.18953C48.1089 6.11445 48.2806 6.07691 48.4721 6.07691C48.6748 6.07691 48.8447 6.11445 48.9817 6.18953C49.1187 6.26461 49.2313 6.3716 49.3195 6.51049C49.4077 6.64751 49.4762 6.80987 49.5251 6.99756C49.5757 7.18338 49.6151 7.38703 49.6433 7.60852V7.73803C49.6151 7.95012 49.5729 8.1472 49.5166 8.32927C49.4603 8.51134 49.3862 8.67088 49.2942 8.8079C49.2022 8.94304 49.0877 9.04815 48.9507 9.12323C48.8156 9.1983 48.6541 9.23584 48.4664 9.23584C48.2787 9.23584 48.1089 9.19737 47.9568 9.12041C47.8067 9.04345 47.6781 8.93553 47.5711 8.79663C47.4641 8.65774 47.3816 8.49444 47.3234 8.30675C47.2671 8.11905 47.2389 7.91446 47.2389 7.69298ZM48.0498 7.63385V7.69298C48.0498 7.81874 48.062 7.93605 48.0864 8.04491C48.1108 8.15377 48.1483 8.25044 48.199 8.3349C48.2515 8.41749 48.3163 8.48224 48.3932 8.52917C48.4721 8.57421 48.565 8.59674 48.672 8.59674C48.8203 8.59674 48.9413 8.56577 49.0352 8.50383C49.129 8.44001 49.1994 8.35273 49.2463 8.24199C49.2932 8.13125 49.3205 8.00362 49.328 7.85909V7.49027C49.3242 7.37202 49.3083 7.26597 49.2801 7.17212C49.252 7.0764 49.2125 6.99475 49.1619 6.92718C49.1112 6.85961 49.0455 6.80705 48.9648 6.76951C48.8841 6.73197 48.7883 6.7132 48.6776 6.7132C48.5706 6.7132 48.4777 6.7376 48.3989 6.7864C48.3219 6.83333 48.2572 6.89808 48.2046 6.98067C48.1539 7.06326 48.1155 7.16086 48.0892 7.27348C48.0629 7.38422 48.0498 7.50434 48.0498 7.63385ZM54.2747 8.10685C54.2747 8.03365 54.2634 7.96795 54.2409 7.90977C54.2203 7.84971 54.1809 7.79527 54.1227 7.74647C54.0645 7.69579 53.9828 7.64605 53.8777 7.59725C53.7726 7.54845 53.6365 7.49777 53.4695 7.44522C53.2837 7.38516 53.1072 7.31759 52.9402 7.24251C52.775 7.16743 52.6286 7.08015 52.501 6.98067C52.3752 6.87931 52.2757 6.762 52.2025 6.62874C52.1312 6.49547 52.0956 6.34063 52.0956 6.16419C52.0956 5.99339 52.1331 5.83854 52.2082 5.69964C52.2832 5.55887 52.3884 5.43874 52.5235 5.33926C52.6586 5.23791 52.8182 5.16001 53.0021 5.10558C53.1879 5.05115 53.3916 5.02393 53.6131 5.02393C53.9153 5.02393 54.179 5.07837 54.4042 5.18723C54.6295 5.29609 54.804 5.44531 54.9279 5.63489C55.0536 5.82446 55.1165 6.04125 55.1165 6.28525H54.2775C54.2775 6.16513 54.2522 6.06002 54.2015 5.96992C54.1527 5.87795 54.0776 5.80569 53.9763 5.75314C53.8768 5.70058 53.751 5.6743 53.599 5.6743C53.4526 5.6743 53.3306 5.69683 53.233 5.74187C53.1354 5.78504 53.0622 5.84417 53.0134 5.91925C52.9646 5.99245 52.9402 6.07503 52.9402 6.16701C52.9402 6.23645 52.9571 6.29933 52.9909 6.35564C53.0265 6.41195 53.0791 6.4645 53.1485 6.51331C53.218 6.56211 53.3034 6.60809 53.4047 6.65126C53.5061 6.69443 53.6234 6.73666 53.7567 6.77796C53.98 6.84553 54.1762 6.92155 54.3451 7.00601C54.5159 7.09047 54.6585 7.18526 54.773 7.29037C54.8875 7.39548 54.9739 7.51467 55.0321 7.64793C55.0902 7.7812 55.1193 7.93229 55.1193 8.10122C55.1193 8.27953 55.0846 8.43907 55.0152 8.57984C54.9457 8.72062 54.8453 8.8398 54.7139 8.93741C54.5825 9.03501 54.4258 9.10915 54.2437 9.15983C54.0617 9.2105 53.858 9.23584 53.6328 9.23584C53.4301 9.23584 53.2302 9.20957 53.0331 9.15701C52.836 9.10258 52.6568 9.02093 52.4953 8.91207C52.3358 8.8032 52.2082 8.66431 52.1124 8.49538C52.0167 8.32645 51.9689 8.12656 51.9689 7.89569H52.8163C52.8163 8.02332 52.836 8.13125 52.8754 8.21947C52.9148 8.30768 52.9702 8.37901 53.0415 8.43344C53.1147 8.48787 53.2011 8.52729 53.3006 8.55169C53.4019 8.57609 53.5127 8.58829 53.6328 8.58829C53.7792 8.58829 53.8993 8.56764 53.9932 8.52635C54.0889 8.48506 54.1593 8.42781 54.2043 8.35461C54.2512 8.28141 54.2747 8.19882 54.2747 8.10685ZM57.1352 6.13322V6.70757H55.3615V6.13322H57.1352ZM55.8007 5.3815H56.6115V8.2617C56.6115 8.34992 56.6228 8.41749 56.6453 8.46441C56.6697 8.51134 56.7054 8.54418 56.7523 8.56295C56.7992 8.57984 56.8584 8.58829 56.9297 8.58829C56.9804 8.58829 57.0254 8.58641 57.0648 8.58266C57.1061 8.57703 57.1408 8.5714 57.169 8.56577L57.1718 9.16264C57.1024 9.18517 57.0273 9.203 56.9466 9.21614C56.8659 9.22927 56.7767 9.23584 56.6791 9.23584C56.5008 9.23584 56.345 9.20675 56.2117 9.14856C56.0804 9.0885 55.979 8.99278 55.9077 8.86139C55.8363 8.73 55.8007 8.55732 55.8007 8.34335V5.3815ZM57.3942 7.68735V7.62822C57.3942 7.40486 57.4261 7.19934 57.4899 7.01164C57.5538 6.82207 57.6467 6.65783 57.7687 6.51894C57.8907 6.38004 58.0408 6.27212 58.2192 6.19516C58.3975 6.11633 58.6021 6.07691 58.8329 6.07691C59.0638 6.07691 59.2693 6.11633 59.4495 6.19516C59.6297 6.27212 59.7808 6.38004 59.9028 6.51894C60.0267 6.65783 60.1205 6.82207 60.1843 7.01164C60.2481 7.19934 60.2801 7.40486 60.2801 7.62822V7.68735C60.2801 7.90883 60.2481 8.11436 60.1843 8.30393C60.1205 8.49163 60.0267 8.65586 59.9028 8.79663C59.7808 8.93553 59.6306 9.04345 59.4523 9.12041C59.274 9.19737 59.0694 9.23584 58.8385 9.23584C58.6077 9.23584 58.4022 9.19737 58.222 9.12041C58.0437 9.04345 57.8926 8.93553 57.7687 8.79663C57.6467 8.65586 57.5538 8.49163 57.4899 8.30393C57.4261 8.11436 57.3942 7.90883 57.3942 7.68735ZM58.2051 7.62822V7.68735C58.2051 7.81498 58.2163 7.93417 58.2389 8.04491C58.2614 8.15565 58.297 8.25325 58.3458 8.33772C58.3965 8.4203 58.4622 8.48506 58.5429 8.53198C58.6236 8.57891 58.7222 8.60237 58.8385 8.60237C58.9512 8.60237 59.0478 8.57891 59.1285 8.53198C59.2092 8.48506 59.274 8.4203 59.3228 8.33772C59.3716 8.25325 59.4073 8.15565 59.4298 8.04491C59.4542 7.93417 59.4664 7.81498 59.4664 7.68735V7.62822C59.4664 7.50434 59.4542 7.38797 59.4298 7.27911C59.4073 7.16837 59.3707 7.07076 59.32 6.9863C59.2712 6.89996 59.2064 6.83239 59.1257 6.78359C59.045 6.73479 58.9474 6.71039 58.8329 6.71039C58.7184 6.71039 58.6208 6.73479 58.5401 6.78359C58.4613 6.83239 58.3965 6.89996 58.3458 6.9863C58.297 7.07076 58.2614 7.16837 58.2389 7.27911C58.2163 7.38797 58.2051 7.50434 58.2051 7.62822ZM61.5892 6.79767V9.17953H60.7784V6.13322H61.5414L61.5892 6.79767ZM62.5071 6.11351L62.493 6.86524C62.4536 6.85961 62.4057 6.85491 62.3494 6.85116C62.295 6.84553 62.2452 6.84271 62.2002 6.84271C62.0857 6.84271 61.9862 6.85773 61.9018 6.88776C61.8192 6.91591 61.7497 6.95815 61.6934 7.01446C61.639 7.07076 61.5977 7.13927 61.5695 7.21998C61.5433 7.30069 61.5282 7.39266 61.5245 7.4959L61.3612 7.44522C61.3612 7.24814 61.3809 7.06701 61.4203 6.90184C61.4597 6.73479 61.517 6.58932 61.5921 6.46544C61.669 6.34156 61.7629 6.24584 61.8736 6.17827C61.9843 6.1107 62.111 6.07691 62.2537 6.07691C62.2987 6.07691 62.3447 6.08067 62.3916 6.08817C62.4386 6.0938 62.477 6.10225 62.5071 6.11351ZM64.2358 9.23584C63.9993 9.23584 63.7872 9.1983 63.5995 9.12323C63.4118 9.04627 63.2522 8.94022 63.1208 8.80508C62.9913 8.66994 62.8919 8.51321 62.8224 8.3349C62.753 8.15471 62.7182 7.96326 62.7182 7.76055V7.64793C62.7182 7.41706 62.7511 7.20591 62.8168 7.01446C62.8825 6.82301 62.9763 6.65689 63.0983 6.51612C63.2222 6.37535 63.3724 6.26742 63.5488 6.19234C63.7252 6.11539 63.9242 6.07691 64.1457 6.07691C64.3615 6.07691 64.553 6.11257 64.72 6.1839C64.8871 6.25522 65.0269 6.35658 65.1395 6.48797C65.254 6.61935 65.3404 6.77702 65.3985 6.96096C65.4567 7.14303 65.4858 7.34574 65.4858 7.5691V7.90695H63.0645V7.36639H64.6891V7.30445C64.6891 7.19183 64.6684 7.09141 64.6271 7.00319C64.5877 6.9131 64.5276 6.84177 64.4469 6.78922C64.3662 6.73666 64.263 6.71039 64.1372 6.71039C64.0302 6.71039 63.9383 6.73385 63.8613 6.78077C63.7844 6.8277 63.7215 6.89339 63.6727 6.97785C63.6258 7.06232 63.5901 7.1618 63.5657 7.27629C63.5432 7.38891 63.5319 7.51279 63.5319 7.64793V7.76055C63.5319 7.88255 63.5488 7.99517 63.5826 8.0984C63.6182 8.20164 63.668 8.29079 63.7318 8.36587C63.7975 8.44095 63.8763 8.49914 63.9683 8.54043C64.0621 8.58172 64.1682 8.60237 64.2864 8.60237C64.4328 8.60237 64.5689 8.57421 64.6947 8.5179C64.8223 8.45972 64.9321 8.37244 65.0241 8.25607L65.4183 8.68402C65.3544 8.77599 65.2672 8.8642 65.1564 8.94867C65.0476 9.03313 64.9162 9.10258 64.7623 9.15701C64.6083 9.20957 64.4328 9.23584 64.2358 9.23584Z" fill="#545BE8"/>
<path d="M15.2132 0.472809H0.867258C0.818545 0.472809 0.778992 0.512535 0.778992 0.561543V14.3604C0.778992 14.4094 0.818545 14.4492 0.867258 14.4492H15.2132C15.2619 14.4492 15.3012 14.4094 15.3012 14.3604V0.561543C15.3012 0.512535 15.2619 0.472809 15.2132 0.472809Z" fill="#545BE8"/>
<path d="M4.61713 3.54861V11.3734" stroke="white" stroke-width="1.26926"/>
<path d="M6.96185 3.54861V7.4462" stroke="white" stroke-width="1.26685"/>
<path d="M8.74799 3.54889V4.87276H10.9854L12.6084 8.22649H14.0698L11.7488 3.54889H8.74799Z" fill="white"/>
<path d="M9.41284 6.30743V11.5287" stroke="white" stroke-width="1.46628"/>
</g>
<defs>
<clipPath id="clip0_32_278">
<rect width="65.8976" height="14.0032" fill="white" transform="translate(0.778992 0.472809)"/>
</clipPath>
</defs>
</svg>
